<?xml version="1.0" standalone="no"?>
<!DOCTYPE svg PUBLIC "-//W3C//DTD SVG 20010904//EN"
 "http://www.w3.org/TR/2001/REC-SVG-20010904/DTD/svg10.dtd">
<svg version="1.0" xmlns="http://www.w3.org/2000/svg"
 width="500.000000pt" height="500.000000pt" viewBox="0 0 500.000000 500.000000"
 preserveAspectRatio="xMidYMid meet">

<g transform="translate(0.000000,500.000000) scale(0.100000,-0.100000)"
fill="#000000" stroke="none">
<path d="M3839 2895 c-108 -81 -203 -289 -185 -409 6 -38 13 -49 38 -62 52
-27 95 -7 177 83 39 42 71 73 71 67 0 -5 -10 -42 -21 -81 -20 -67 -26 -75 -69
-103 -114 -73 -208 -212 -197 -291 7 -50 22 -69 56 -69 74 0 125 72 191 268
43 127 52 142 80 142 13 0 15 -20 15 -118 0 -97 3 -123 18 -145 64 -98 192
-23 289 170 42 83 46 87 93 104 53 19 43 26 -14 9 -31 -9 -33 -8 -27 13 27 94
37 160 34 214 -3 53 -9 68 -33 93 -52 54 -131 59 -207 12 -36 -23 -99 -86
-116 -117 -11 -20 -11 -19 -12 2 0 42 -18 32 -71 -40 -71 -96 -169 -194 -204
-203 -39 -10 -47 8 -42 98 3 67 10 90 46 162 67 136 178 241 212 200 7 -8 9
-27 5 -49 -7 -35 6 -49 18 -19 31 81 -66 127 -145 69z m490 -113 c19 -18 30
-43 35 -73 8 -54 -7 -159 -32 -225 -16 -45 -20 -48 -92 -75 -41 -15 -94 -28
-117 -28 -37 -1 -44 3 -57 28 -14 26 -14 35 0 83 9 29 25 70 35 90 10 21 19
42 19 48 0 20 -29 10 -49 -17 l-22 -28 16 40 c42 106 127 177 223 184 8 1 26
-11 41 -27z m-329 -261 c0 -50 -3 -59 -20 -64 -11 -3 -20 0 -20 6 0 13 33 117
37 117 2 0 3 -26 3 -59z m310 -106 c0 -3 -14 -34 -31 -68 -60 -118 -134 -197
-187 -197 -39 0 -68 94 -56 182 l6 44 57 -4 c42 -3 73 2 126 21 75 27 85 30
85 22z m-430 -41 c0 -26 -69 -225 -90 -259 -45 -73 -90 -90 -106 -42 -23 69
15 157 107 250 68 68 89 80 89 51z"/>
<path d="M1505 2897 c-3 -6 -4 -181 -3 -387 l3 -375 31 -3 31 -3 5 138 c4 104
10 148 23 176 25 53 68 80 127 81 42 1 53 -3 74 -27 23 -27 24 -33 24 -198 l0
-170 33 3 32 3 0 175 c0 163 -2 177 -22 210 -54 86 -167 100 -247 30 -28 -25
-35 -28 -40 -14 -3 8 -6 96 -6 195 l0 179 -30 0 c-17 0 -33 -6 -35 -13z"/>
<path d="M2040 2520 c0 -378 1 -390 19 -390 53 0 51 -18 51 396 l0 384 -35 0
-35 0 0 -390z"/>
<path d="M744 2835 c-82 -196 -284 -690 -284 -697 0 -13 44 -10 62 5 8 6 30
49 48 95 l32 82 161 -2 160 -3 36 -90 c30 -74 40 -91 60 -93 13 -2 28 1 33 6
7 7 -37 127 -132 359 -79 191 -146 355 -151 363 -6 11 -12 5 -25 -25z m86
-285 c33 -85 58 -155 56 -157 -2 -2 -60 -2 -129 -1 l-125 3 54 135 c68 171 74
184 80 178 2 -3 31 -74 64 -158z"/>
<path d="M1227 2764 c-4 -4 -7 -45 -7 -90 l0 -83 -57 -3 c-57 -3 -58 -3 -58
-33 0 -30 1 -30 58 -33 l57 -3 0 -194 0 -195 35 0 35 0 0 195 0 195 55 0 55 0
0 35 0 35 -55 0 -54 0 -3 88 c-3 85 -4 87 -28 90 -14 2 -29 0 -33 -4z"/>
<path d="M2897 2764 c-4 -4 -7 -45 -7 -91 l0 -83 -55 0 -55 0 0 -35 0 -35 55
0 55 0 0 -195 0 -195 35 0 35 0 0 195 0 194 58 3 c56 3 57 3 57 33 0 29 -1 30
-57 33 l-57 3 -3 87 c-3 85 -4 87 -28 90 -14 2 -29 0 -33 -4z"/>
<path d="M2395 2585 c-230 -85 -199 -415 42 -454 91 -14 192 30 228 100 l16
29 -40 0 c-23 0 -44 -6 -52 -16 -37 -45 -137 -61 -197 -30 -35 18 -82 75 -82
99 0 15 20 17 195 17 223 0 216 -3 196 85 -29 131 -182 216 -306 170z m144
-69 c38 -20 91 -82 91 -106 0 -19 -8 -20 -160 -20 -105 0 -160 4 -160 10 0 35
56 101 100 119 37 15 97 13 129 -3z"/>
<path d="M3314 2586 c-169 -53 -220 -272 -93 -393 46 -44 97 -63 166 -63 74 0
127 25 178 81 l40 44 -44 3 c-36 3 -48 -1 -71 -23 -81 -77 -230 -36 -264 73
l-7 22 154 0 c85 0 175 3 201 6 45 7 46 7 46 43 -1 109 -126 224 -242 220 -13
0 -42 -6 -64 -13z m150 -80 c40 -23 92 -96 79 -110 -3 -3 -78 -6 -165 -6
l-159 0 6 23 c31 100 149 146 239 93z"/>
</g>
</svg>
